<svg width="50" height="50" viewBox="0 0 50 50" fill="none" xmlns="http://www.w3.org/2000/svg">
<rect width="50" height="50" rx="25" fill="#C4C4C4"/>
<path d="M8.93341 20.476V21.784H18.9894V20.476H8.93341ZM9.70141 12.916V14.188H18.1614V12.916H9.70141ZM9.74941 17.512V18.796H18.1254V17.512H9.74941ZM11.2134 14.092V17.632H12.8094V14.092H11.2134ZM15.0654 14.092V17.632H16.6494V14.092H15.0654ZM19.9725 20.548V21.844H30.0285V20.548H19.9725ZM24.1845 18.448V21.076H25.7805V18.448H24.1845ZM21.1005 12.676V13.936H27.3165V15.124H21.1245V18.244H22.7085V16.372H28.9005V12.676H21.1005ZM21.1245 17.608V18.892H29.1525V17.608H21.1245ZM38.6555 11.956V17.644H40.2635V11.956H38.6555ZM32.7395 18.088V19.312H38.6795V19.948H32.7635V22.432H34.3355V21.088H40.2635V18.088H32.7395ZM32.7635 21.76V22.996H40.5635V21.76H32.7635ZM31.4795 12.628V13.852H37.4675V12.628H31.4795ZM31.3475 17.452C33.2675 17.44 35.7635 17.392 37.9595 17.032L37.8755 15.892C35.7275 16.156 33.1355 16.192 31.1915 16.192L31.3475 17.452ZM32.3555 13.18V16.816H33.8795V13.18H32.3555ZM35.0435 13.18V16.816H36.5915V13.18H35.0435ZM16.5414 25.944V37.092H18.1494V25.944H16.5414ZM12.1614 26.724C10.4814 26.724 9.24541 28.26 9.24541 30.684C9.24541 33.132 10.4814 34.668 12.1614 34.668C13.8414 34.668 15.0774 33.132 15.0774 30.684C15.0774 28.26 13.8414 26.724 12.1614 26.724ZM12.1614 28.176C12.9894 28.176 13.5414 29.052 13.5414 30.684C13.5414 32.34 12.9894 33.228 12.1614 33.228C11.3334 33.228 10.7694 32.34 10.7694 30.684C10.7694 29.052 11.3334 28.176 12.1614 28.176ZM20.5125 26.952V34.428H25.8525V26.952H20.5125ZM24.2925 28.2V33.168H22.0845V28.2H24.2925ZM27.5805 25.944V37.092H29.1885V25.944H27.5805ZM33.6755 27.708V28.956C33.6755 30.84 32.7755 32.892 30.9155 33.72L31.8155 34.98C33.9035 34.032 34.9475 31.524 34.9475 28.956V27.708H33.6755ZM34.0355 27.708V28.956C34.0355 31.428 35.0675 33.792 37.1795 34.704L38.0435 33.444C36.1835 32.676 35.2955 30.756 35.2955 28.956V27.708H34.0355ZM31.3595 27.024V28.332H37.5875V27.024H31.3595ZM38.6195 25.956V37.068H40.2275V25.956H38.6195Z" fill="black"/>
</svg>
