<svg width="252" height="79" viewBox="0 0 252 79" fill="none" xmlns="http://www.w3.org/2000/svg">
<path d="M13.8075 54.04C12.7942 54.04 11.9675 53.72 11.3275 53.08C10.7408 52.44 10.2875 51.6933 9.9675 50.84C9.6475 49.9867 9.43417 49.16 9.3275 48.36C9.22083 47.56 9.1675 47 9.1675 46.68C9.1675 44.92 9.22083 43.4 9.3275 42.12C9.4875 40.7867 9.6475 39.4533 9.8075 38.12V37.8C9.8075 37.48 9.7275 37.1867 9.5675 36.92C9.46083 36.6 9.35417 36.2533 9.2475 35.88C9.2475 35.7733 9.22083 35.6933 9.1675 35.64C9.1675 35.5867 9.1675 35.5333 9.1675 35.48C9.1675 35.1067 9.35417 34.7333 9.7275 34.36C10.0475 34.0933 10.4742 33.88 11.0075 33.72C11.5942 33.5067 12.1008 33.4 12.5275 33.4C12.7408 33.4 12.9542 33.4533 13.1675 33.56C13.2742 33.6667 13.3275 33.7733 13.3275 33.88C13.3275 34.2533 13.1942 34.7067 12.9275 35.24C12.6608 35.9333 12.5008 36.36 12.4475 36.52C12.3942 36.6267 12.3675 37.0533 12.3675 37.8C12.3675 38.2267 12.6342 38.7867 13.1675 39.48C13.7008 40.1733 14.3142 40.8667 15.0075 41.56C15.7008 42.2 16.3142 42.76 16.8475 43.24C17.4342 43.72 17.7808 43.96 17.8875 43.96C18.2075 43.1067 18.7142 41.9333 19.4075 40.44C20.1008 38.8933 20.8475 37.24 21.6475 35.48C22.4475 33.72 23.2475 32.04 24.0475 30.44C24.8475 28.7867 25.5142 27.4 26.0475 26.28C26.3142 25.6933 26.5008 25.1867 26.6075 24.76C26.7142 24.3333 26.7675 24.0133 26.7675 23.8C26.7675 23.5867 26.7408 23.4267 26.6875 23.32C26.6342 23.16 26.5808 23.0533 26.5275 23C26.6342 22.36 27.1408 21.3733 28.0475 20.04C29.0075 18.6533 30.1542 17.24 31.4875 15.8C32.8208 14.3067 34.1808 13.0533 35.5675 12.04C36.9542 11.0267 38.1808 10.52 39.2475 10.52C39.5675 10.52 40.0742 10.6267 40.7675 10.84C41.4608 11 42.1275 11.2933 42.7675 11.72C43.4075 12.1467 43.7808 12.7333 43.8875 13.48V13.8C43.8875 13.9067 43.8608 13.96 43.8075 13.96C43.7542 13.96 43.6475 13.9067 43.4875 13.8C43.3275 13.6933 43.1408 13.64 42.9275 13.64C41.7008 13.64 40.3675 14.2533 38.9275 15.48C37.4875 16.6533 35.9942 18.2533 34.4475 20.28C32.9542 22.2533 31.4875 24.44 30.0475 26.84C28.6075 29.24 27.2475 31.64 25.9675 34.04C24.6875 36.44 23.5408 38.6533 22.5275 40.68C21.5675 42.6533 20.7942 44.2533 20.2075 45.48C21.9142 46.76 23.7275 47.6933 25.6475 48.28C27.5675 48.8133 29.5142 49.08 31.4875 49.08C34.6875 49.08 37.8608 48.4667 41.0075 47.24C44.1542 46.0133 47.0875 44.44 49.8075 42.52C52.5808 40.5467 54.9008 38.4133 56.7675 36.12C59.0075 33.4533 60.6875 30.7067 61.8075 27.88C62.9808 25.0533 63.5675 22.3333 63.5675 19.72C63.5675 16.7333 62.8208 14.0667 61.3275 11.72C59.8342 9.32 57.5408 7.42666 54.4475 6.04C51.4075 4.6 47.5142 3.88 42.7675 3.88C39.3542 3.88 35.8342 4.25333 32.2075 5C28.5808 5.69333 25.0875 6.68 21.7275 7.96C18.3675 9.24 15.3275 10.76 12.6075 12.52C9.94083 14.2267 7.8075 16.0933 6.2075 18.12C4.66083 20.1467 3.8875 22.2533 3.8875 24.44C3.8875 25.7733 4.31417 26.7867 5.1675 27.48C6.02083 28.12 6.98083 28.6 8.0475 28.92C9.11417 29.24 9.94083 29.56 10.5275 29.88C10.9542 30.04 11.1675 30.2267 11.1675 30.44C11.1675 30.76 10.8742 30.92 10.2875 30.92C9.6475 30.92 8.79417 30.76 7.7275 30.44C6.66083 30.12 5.59417 29.64 4.5275 29C3.46083 28.36 2.58083 27.5867 1.8875 26.68C1.2475 25.72 1.0075 24.6 1.1675 23.32C1.1675 23.2133 1.14083 23.0267 1.0875 22.76C1.03417 22.4933 1.0075 22.2533 1.0075 22.04C1.0075 19.48 1.75417 17.16 3.2475 15.08C4.74083 13 6.7675 11.16 9.3275 9.56C11.9408 7.96 14.8742 6.62667 18.1275 5.56C21.4342 4.49333 24.9008 3.69333 28.5275 3.16C32.1542 2.62667 35.7275 2.36 39.2475 2.36C42.3942 2.36 45.5942 2.62667 48.8475 3.16C52.1542 3.64 55.1942 4.57333 57.9675 5.96C60.7408 7.29333 62.9542 9.18667 64.6075 11.64C66.3142 14.0933 67.1675 17.2667 67.1675 21.16C67.1675 25.4267 66.2075 29.3733 64.2875 33C62.4208 36.6267 59.8875 39.8 56.6875 42.52C53.4875 45.1867 49.9142 47.2667 45.9675 48.76C42.0742 50.2533 38.1008 51 34.0475 51C31.3275 51 28.6875 50.6533 26.1275 49.96C23.6208 49.32 21.4342 48.28 19.5675 46.84C19.4608 47 19.1942 47.48 18.7675 48.28C18.3942 49.0267 17.9142 49.8267 17.3275 50.68C16.7942 51.5867 16.2075 52.36 15.5675 53C14.9808 53.6933 14.3942 54.04 13.8075 54.04ZM13.4875 51.64C13.9142 51.64 14.3675 51.1867 14.8475 50.28C15.3275 49.4267 15.7542 48.52 16.1275 47.56C16.5008 46.5467 16.7408 45.9333 16.8475 45.72C16.2608 45.24 15.4608 44.4667 14.4475 43.4C13.4875 42.3333 12.6608 41.48 11.9675 40.84C11.9675 41.3733 11.9675 42.5733 11.9675 44.44C12.0208 46.3067 12.2075 48.1733 12.5275 50.04C12.7408 51.1067 13.0608 51.64 13.4875 51.64ZM89.6606 49.8C88.754 49.8 87.9006 49.5867 87.1006 49.16C86.354 48.7333 85.794 47.9333 85.4206 46.76C85.2606 46.28 85.1806 45.6133 85.1806 44.76C85.1806 43.5867 85.3406 42.28 85.6606 40.84C85.9806 39.4 86.3273 38.1733 86.7006 37.16C86.434 37.2667 85.9273 37.7467 85.1806 38.6C84.4873 39.4 83.6073 40.3867 82.5406 41.56C81.5273 42.68 80.3806 43.8267 79.1006 45C77.874 46.12 76.594 47.0533 75.2606 47.8C73.9273 48.5467 72.6206 48.92 71.3406 48.92C70.4873 48.92 69.5806 48.68 68.6206 48.2C67.6606 47.6667 66.8873 47 66.3006 46.2C65.5006 45.1333 65.1006 44.04 65.1006 42.92C65.1006 41.48 65.5806 39.9867 66.5406 38.44C67.554 36.8933 68.834 35.4 70.3806 33.96C71.9806 32.4667 73.6606 31.1333 75.4206 29.96C77.234 28.7333 78.9406 27.72 80.5406 26.92C82.194 26.0667 83.5273 25.5067 84.5406 25.24C85.6073 24.92 86.8073 24.76 88.1406 24.76C88.8873 24.76 89.6606 24.8667 90.4606 25.08C91.2606 25.24 91.9273 25.5333 92.4606 25.96C92.8873 26.1733 93.234 26.4667 93.5006 26.84C93.7673 27.2133 93.9006 27.6133 93.9006 28.04C93.9006 28.4667 93.714 28.6 93.3406 28.44C92.914 27.8 92.3273 27.4 91.5806 27.24C90.8873 27.0267 90.1673 26.92 89.4206 26.92C87.2873 26.92 84.9406 27.6133 82.3806 29C79.8206 30.3867 77.5273 32.0133 75.5006 33.88C74.8606 34.4133 73.9806 35.3467 72.8606 36.68C71.794 37.96 70.8073 39.3733 69.9006 40.92C68.994 42.4667 68.5406 43.88 68.5406 45.16C68.5406 45.8533 68.7273 46.4667 69.1006 47C69.314 47.3733 69.6606 47.56 70.1406 47.56C70.8873 47.56 71.874 47.16 73.1006 46.36C74.3806 45.56 75.6873 44.6 77.0206 43.48C78.354 42.3067 79.554 41.1867 80.6206 40.12C81.7406 39.0533 82.5406 38.28 83.0206 37.8C83.2873 37.5333 83.794 37 84.5406 36.2C85.3406 35.3467 86.194 34.44 87.1006 33.48C88.0073 32.52 88.8073 31.6933 89.5006 31C90.2473 30.3067 90.7273 29.96 90.9406 29.96C91.2073 29.96 91.634 30.04 92.2206 30.2C92.8606 30.3067 93.394 30.4933 93.8206 30.76C94.2473 31.0267 94.3273 31.3733 94.0606 31.8C92.674 33.8267 91.554 35.96 90.7006 38.2C89.9006 40.3867 89.4206 42.12 89.2606 43.4C89.2073 43.6133 89.1806 43.8267 89.1806 44.04C89.1806 44.2 89.1806 44.3867 89.1806 44.6C89.1806 46.7333 89.9273 47.8 91.4206 47.8C92.2206 47.8 93.2873 47.32 94.6206 46.36C95.954 45.4 97.314 44.2533 98.7006 42.92C100.087 41.5867 101.341 40.3067 102.461 39.08C103.634 37.8 104.434 36.84 104.861 36.2C105.021 36.04 105.181 35.96 105.341 35.96C105.554 35.96 105.741 36.0667 105.901 36.28C106.061 36.44 106.061 36.6533 105.901 36.92C105.314 37.88 104.461 39.0267 103.341 40.36C102.221 41.6933 100.967 43.0267 99.5806 44.36C98.194 45.6933 96.834 46.84 95.5006 47.8C94.8073 48.3333 93.9273 48.7867 92.8606 49.16C91.794 49.5867 90.7273 49.8 89.6606 49.8ZM100.231 78.36C99.5906 78.2 99.0306 78.04 98.5506 77.88C97.5373 77.3467 96.8173 76.7333 96.3906 76.04C95.964 75.4 95.7506 74.7067 95.7506 73.96C95.7506 72.7333 96.1773 71.4 97.0306 69.96C97.8306 68.5733 98.8973 67.1333 100.231 65.64C101.564 64.04 103.244 62.4133 105.271 60.76C107.351 59.1067 109.511 57.5067 111.751 55.96C113.991 54.4667 115.964 53.16 117.671 52.04C118.577 50.1733 119.511 48.1733 120.471 46.04C121.484 43.9067 122.444 41.8533 123.351 39.88C124.257 37.8533 125.031 36.0133 125.671 34.36C126.364 32.7067 126.871 31.4267 127.191 30.52C126.337 31.5333 125.351 32.8133 124.231 34.36C123.111 35.8533 121.884 37.4533 120.551 39.16C119.217 40.8133 117.831 42.3867 116.391 43.88C115.004 45.3733 113.564 46.6 112.071 47.56C110.577 48.4667 109.111 48.92 107.671 48.92C105.537 48.92 104.044 48.3867 103.191 47.32C102.391 46.2 101.991 44.8933 101.991 43.4C101.991 42.3333 102.124 41.2667 102.391 40.2C102.711 39.1333 103.111 38.1467 103.591 37.24C103.911 36.6 104.417 35.7467 105.111 34.68C105.804 33.6133 106.604 32.52 107.511 31.4C108.417 30.28 109.324 29.3467 110.231 28.6C111.191 27.8533 112.097 27.48 112.951 27.48C113.964 27.48 114.737 27.8533 115.271 28.6C115.804 29.2933 115.857 29.7733 115.431 30.04C114.577 30.6267 113.511 31.5333 112.231 32.76C111.004 33.9333 109.777 35.2933 108.551 36.84C108.231 37.2667 107.831 37.9333 107.351 38.84C106.924 39.7467 106.524 40.7333 106.151 41.8C105.777 42.8133 105.591 43.7467 105.591 44.6C105.591 44.9733 105.644 45.3467 105.751 45.72C105.857 46.04 106.044 46.28 106.311 46.44C106.737 46.76 107.217 46.92 107.751 46.92C108.497 46.92 109.324 46.68 110.231 46.2C111.191 45.72 112.097 45.1067 112.951 44.36C115.937 41.48 118.604 38.4667 120.951 35.32C123.297 32.1733 125.777 29.0533 128.391 25.96C128.551 25.4267 129.004 25.16 129.751 25.16C130.604 25.16 131.484 25.4267 132.391 25.96C133.351 26.44 133.751 26.84 133.591 27.16C133.111 28.2267 132.471 29.64 131.671 31.4C130.924 33.16 130.097 35.0533 129.191 37.08C128.284 39.1067 127.377 41.1333 126.471 43.16C125.564 45.1333 124.737 46.92 123.991 48.52C124.631 48.2 125.777 47.4 127.431 46.12C129.084 44.84 130.897 43.2933 132.871 41.48C134.844 39.6133 136.631 37.6933 138.231 35.72C138.551 35.4 138.791 35.24 138.951 35.24C139.271 35.24 139.431 35.4533 139.431 35.88C139.431 36.2533 139.271 36.68 138.951 37.16C138.151 38.2267 137.031 39.48 135.591 40.92C134.204 42.36 132.684 43.8267 131.031 45.32C129.431 46.76 127.857 48.0667 126.311 49.24C124.764 50.4667 123.431 51.4 122.311 52.04C120.657 55.56 119.057 58.8667 117.511 61.96C115.964 65.1067 114.551 67.64 113.271 69.56C112.417 70.8933 111.377 72.2533 110.151 73.64C108.924 75.0267 107.591 76.1733 106.151 77.08C104.711 78.04 103.191 78.52 101.591 78.52C101.377 78.52 101.164 78.4933 100.951 78.44C100.737 78.44 100.497 78.4133 100.231 78.36ZM100.471 76.6C100.897 76.6 101.404 76.4667 101.991 76.2C102.631 75.9333 103.297 75.5067 103.991 74.92C106.017 73.2667 107.724 71.32 109.111 69.08C110.497 66.8933 111.724 64.5733 112.791 62.12C113.911 59.6667 115.031 57.32 116.151 55.08C114.071 56.6267 111.724 58.44 109.111 60.52C106.497 62.6533 104.124 64.76 101.991 66.84C100.711 68.12 99.7773 69.3733 99.1906 70.6C98.604 71.88 98.3106 73 98.3106 73.96C98.3106 75.72 99.0306 76.6 100.471 76.6ZM198.614 62.12C196.374 62.12 194.054 61.8 191.654 61.16C189.307 60.5733 187.094 59.8533 185.014 59C182.934 58.2 181.12 57.5333 179.574 57C176.747 55.9867 174.107 55 171.654 54.04C169.2 53.08 167.467 52.4933 166.454 52.28C161.28 50.9467 157.627 50.28 155.494 50.28C155.12 50.5467 154.774 50.76 154.454 50.92C154.134 51.1333 153.787 51.2667 153.414 51.32C153.254 51.3733 153.014 51.4 152.694 51.4C151.734 51.4 151.254 51.08 151.254 50.44C151.254 50.0667 151.547 49.6933 152.134 49.32C152.56 49.1067 153.04 49 153.574 49C154.16 48.9467 154.747 48.8933 155.334 48.84C156.56 47.7733 157.707 46.4133 158.774 44.76C159.894 43.1067 160.694 41.8533 161.174 41C161.6 40.2533 162 39.5333 162.374 38.84C162.8 38.0933 163.227 37.3733 163.654 36.68C162.8 36.8933 161.92 37.1067 161.014 37.32C160.107 37.48 159.227 37.56 158.374 37.56C156.827 37.56 155.414 37.24 154.134 36.6C152.907 35.96 152.294 34.7867 152.294 33.08C152.294 31.96 152.774 30.92 153.734 29.96C154.747 29 155.787 28.52 156.854 28.52C157.494 28.52 157.814 28.7867 157.814 29.32C157.814 29.64 157.574 29.8 157.094 29.8C156.507 29.8 155.974 30.1467 155.494 30.84C155.014 31.5333 154.774 32.2533 154.774 33C154.774 33.5333 154.934 34.0667 155.254 34.6C155.627 35.08 156.24 35.3733 157.094 35.48C157.894 35.64 158.747 35.72 159.654 35.72C161.2 35.72 162.774 35.5067 164.374 35.08C165.12 33.5867 165.814 32.12 166.454 30.68C167.147 29.1867 167.814 27.72 168.454 26.28C169.787 23.3467 171.147 20.4933 172.534 17.72C173.92 14.9467 175.28 12.4667 176.614 10.28C177.947 8.09333 179.147 6.46666 180.214 5.4C182.24 3.48 184.267 2.12 186.294 1.32C188.374 0.52 190.24 0.12 191.894 0.12C192.214 0.12 192.534 0.146666 192.854 0.199999C193.174 0.199999 193.467 0.226665 193.734 0.279998C195.707 0.599997 197.094 1.29333 197.894 2.36C198.694 3.37333 199.094 4.6 199.094 6.04C199.094 6.78667 199.014 7.56 198.854 8.36C198.16 11.72 196.747 14.8667 194.614 17.8C192.534 20.7333 190 23.4 187.014 25.8C184.027 28.1467 180.827 30.1467 177.414 31.8C174.054 33.4533 170.774 34.6533 167.574 35.4C166.88 36.5733 166.134 37.7467 165.334 38.92C164.587 40.04 163.76 41.16 162.854 42.28C162.32 43.08 161.547 44.12 160.534 45.4C159.52 46.6267 158.48 47.7733 157.414 48.84C158.16 48.8933 158.96 48.9467 159.814 49C160.72 49.1067 161.68 49.24 162.694 49.4C167.12 50.0933 171.547 51.1067 175.974 52.44C180.454 53.8267 184.88 55.08 189.254 56.2C190.48 56.52 192.214 56.92 194.454 57.4C196.747 57.88 198.88 58.12 200.854 58.12C202.774 58.12 204.24 57.7733 205.254 57.08C206.054 56.6 206.454 55.9333 206.454 55.08C206.454 54.44 206.16 53.9067 205.574 53.48C205.254 53.2133 205.094 53 205.094 52.84C205.094 52.3067 205.414 52.2267 206.054 52.6C206.747 53.08 207.227 53.64 207.494 54.28C207.814 54.92 207.974 55.5867 207.974 56.28C207.974 57.08 207.814 57.8 207.494 58.44C207.227 59.1333 206.88 59.6133 206.454 59.88C204.267 61.3733 201.654 62.12 198.614 62.12ZM168.774 33.56C174.694 31 179.894 27.88 184.374 24.2C188.854 20.52 192.4 15.6667 195.014 9.64C195.867 7.77333 196.294 6.14667 196.294 4.76C196.294 3.64 195.947 2.76 195.254 2.12C194.88 1.64 194.267 1.4 193.414 1.4C191.654 1.4 189.84 2.01333 187.974 3.24C186.374 4.41333 184.854 5.96 183.414 7.88C182.027 9.8 180.72 11.8267 179.494 13.96C178.267 16.0933 177.174 18.12 176.214 20.04C175.307 21.9067 174.534 23.4 173.894 24.52C173.467 25.3733 172.8 26.6267 171.894 28.28C171.04 29.9333 170 31.6933 168.774 33.56ZM193.503 49.88C192.009 49.88 190.703 49.5333 189.583 48.84C187.716 47.72 186.783 45.6933 186.783 42.76C186.783 41.5333 186.996 40.12 187.423 38.52C187.796 37.1867 188.463 35.7467 189.423 34.2C190.383 32.6 191.503 31.08 192.783 29.64C194.116 28.2 195.556 27.0267 197.103 26.12C198.649 25.2133 200.196 24.76 201.743 24.76C202.383 24.76 202.943 24.84 203.423 25C204.063 25.2133 204.596 25.6133 205.023 26.2C205.503 26.7333 205.743 27.4267 205.743 28.28C205.743 29.1867 205.503 29.6933 205.023 29.8C204.596 29.9067 204.383 29.8 204.383 29.48C204.383 29.3733 204.383 29.2667 204.383 29.16C204.436 29.0533 204.463 28.9733 204.463 28.92C204.463 28.4933 204.329 28.12 204.062 27.8C203.849 27.4267 203.423 27.24 202.783 27.24C201.929 27.24 200.863 27.6933 199.583 28.6C198.356 29.5067 197.076 30.7333 195.743 32.28C194.463 33.7733 193.316 35.4267 192.303 37.24C191.343 39.0533 190.703 40.8667 190.383 42.68C190.329 42.9467 190.276 43.2133 190.223 43.48C190.223 43.6933 190.223 43.9333 190.223 44.2C190.223 45.4267 190.489 46.4667 191.023 47.32C191.609 48.12 192.516 48.52 193.743 48.52C195.236 48.52 196.676 47.96 198.063 46.84C199.449 45.6667 200.676 44.28 201.743 42.68C202.863 41.08 203.689 39.6667 204.223 38.44C204.649 37.48 204.943 36.6533 205.103 35.96C205.263 35.2667 205.343 34.68 205.343 34.2C205.343 33.7733 205.289 33.4 205.182 33.08C205.129 32.76 205.049 32.4933 204.943 32.28C204.836 31.96 204.783 31.72 204.783 31.56C204.783 31.1333 204.943 30.7867 205.263 30.52C205.636 30.2533 206.009 30.12 206.383 30.12C206.703 30.12 207.049 30.2267 207.423 30.44C207.849 30.5467 208.436 30.6267 209.183 30.68C209.929 30.7333 210.729 30.76 211.583 30.76C212.489 30.76 213.396 30.7333 214.303 30.68C215.263 30.6267 216.089 30.52 216.783 30.36C216.889 30.3067 217.049 30.28 217.263 30.28C217.636 30.28 217.823 30.3867 217.823 30.6C217.823 30.8133 217.636 31 217.263 31.16C215.396 32.0133 213.716 32.4667 212.223 32.52C210.783 32.5733 209.529 32.6 208.463 32.6C208.569 33.9333 208.276 35.3733 207.582 36.92C206.889 38.4133 206.169 39.7467 205.423 40.92C204.516 42.2533 203.476 43.6133 202.303 45C201.129 46.3867 199.823 47.56 198.383 48.52C196.943 49.4267 195.316 49.88 193.503 49.88ZM211.949 78.36C211.309 78.2 210.749 78.04 210.269 77.88C209.256 77.3467 208.536 76.7333 208.109 76.04C207.683 75.4 207.469 74.7067 207.469 73.96C207.469 72.7333 207.896 71.4 208.749 69.96C209.549 68.5733 210.616 67.1333 211.949 65.64C213.283 64.04 214.963 62.4133 216.989 60.76C219.069 59.1067 221.229 57.5067 223.469 55.96C225.709 54.4667 227.683 53.16 229.389 52.04C231.256 48.2533 232.909 44.68 234.349 41.32C235.789 37.9067 236.803 35.2933 237.389 33.48C236.269 34.7067 235.069 36.0933 233.789 37.64C232.509 39.1333 231.576 40.2267 230.989 40.92C229.976 41.9867 228.829 43.16 227.549 44.44C226.269 45.6667 224.909 46.7333 223.469 47.64C222.083 48.4933 220.723 48.92 219.389 48.92C218.536 48.92 217.629 48.68 216.669 48.2C215.709 47.6667 214.936 47 214.349 46.2C213.549 45.1333 213.149 44.04 213.149 42.92C213.149 41.48 213.629 39.9867 214.589 38.44C215.603 36.8933 216.883 35.4 218.429 33.96C220.029 32.4667 221.709 31.1333 223.469 29.96C225.283 28.7333 226.989 27.72 228.589 26.92C230.243 26.0667 231.576 25.5067 232.589 25.24C233.549 24.92 234.723 24.76 236.109 24.76C236.749 24.76 237.523 24.8667 238.429 25.08C239.336 25.2933 240.136 25.64 240.829 26.12C241.576 26.5467 241.949 27.1867 241.949 28.04C241.949 28.4667 241.736 28.6 241.309 28.44C240.936 27.8 240.376 27.4 239.629 27.24C238.936 27.0267 238.216 26.92 237.469 26.92C235.389 26.92 233.043 27.6133 230.429 29C227.869 30.3867 225.576 32.0133 223.549 33.88C222.909 34.4133 222.029 35.3467 220.909 36.68C219.789 37.96 218.776 39.3733 217.869 40.92C217.016 42.4667 216.589 43.88 216.589 45.16C216.589 45.8533 216.776 46.4667 217.149 47C217.309 47.2667 217.629 47.4 218.109 47.4C219.123 47.4 220.349 46.9467 221.789 46.04C223.283 45.1333 224.856 43.9867 226.509 42.6C228.163 41.2133 229.763 39.7467 231.309 38.2C232.909 36.6 234.323 35.1333 235.549 33.8C236.776 32.4667 237.683 31.4533 238.269 30.76C238.376 30.4933 238.563 30.3067 238.829 30.2C239.096 30.0933 239.389 30.04 239.709 30.04C240.563 30.04 241.443 30.28 242.349 30.76C243.309 31.1867 243.709 31.56 243.549 31.88C242.536 34.0667 241.336 36.6 239.949 39.48C238.616 42.36 237.203 45.3733 235.709 48.52C236.403 48.1467 237.549 47.32 239.149 46.04C240.749 44.76 242.509 43.24 244.429 41.48C246.349 39.6667 248.136 37.8 249.789 35.88C250.429 35.1867 250.909 34.84 251.229 34.84C251.549 34.84 251.629 35.1333 251.469 35.72C251.309 36.2533 250.883 36.9467 250.189 37.8C249.336 38.8133 248.163 40.04 246.669 41.48C245.176 42.8667 243.603 44.3067 241.949 45.8C240.296 47.24 238.749 48.52 237.309 49.64C235.923 50.8133 234.829 51.6133 234.029 52.04C232.376 55.56 230.776 58.8667 229.229 61.96C227.683 65.1067 226.269 67.64 224.989 69.56C224.136 70.8933 223.096 72.2533 221.869 73.64C220.643 75.0267 219.309 76.1733 217.869 77.08C216.429 78.04 214.909 78.52 213.309 78.52C213.096 78.52 212.883 78.4933 212.669 78.44C212.456 78.44 212.216 78.4133 211.949 78.36ZM211.149 76.28C211.469 76.4933 211.923 76.4933 212.509 76.28C213.149 76.0667 213.949 75.5867 214.909 74.84C216.989 73.1867 218.776 71.24 220.269 69C221.763 66.8133 223.123 64.4933 224.349 62.04C225.576 59.64 226.749 57.32 227.869 55.08C225.789 56.6267 223.443 58.44 220.829 60.52C218.216 62.6533 215.843 64.76 213.709 66.84C212.643 67.9067 211.763 69.08 211.069 70.36C210.323 71.6933 209.949 72.8933 209.949 73.96C209.949 75.08 210.349 75.8533 211.149 76.28Z" fill="#769FCD"/>
</svg>
