<svg width="18" height="18" viewBox="0 0 18 18" fill="none" xmlns="http://www.w3.org/2000/svg">
<path d="M15.9564 1.42909C13.5835 3.48277 11.5759 5.43774 9.73795 7.9884C8.92739 9.1134 8.02598 10.4375 7.43676 11.6877C7.10039 12.3506 6.49401 13.3864 6.2873 14.3823C5.15667 13.3305 3.94223 12.1366 2.69967 11.2014C1.81401 10.5351 -0.736923 11.8936 0.301452 12.6749C2.16248 14.0746 3.7102 15.8181 5.52033 17.2803C6.27745 17.8912 7.95539 16.5646 8.3497 16.008C9.64401 14.1742 9.82092 11.9326 10.7642 9.9324C12.2045 6.87324 14.7588 4.36027 17.2808 2.17805C18.9517 0.619648 17.226 0.332211 15.9589 1.42909" fill="#37B34A"/>
</svg>
