<svg width="16" height="16" viewBox="0 0 16 16" fill="none" xmlns="http://www.w3.org/2000/svg">
<path fill-rule="evenodd" clip-rule="evenodd" d="M0.195935 0.195833C0.133859 0.257753 0.0846101 0.331311 0.0510065 0.412294C0.0174029 0.493278 0.000105684 0.580095 0.000105684 0.667774C0.000105684 0.755452 0.0174029 0.84227 0.0510065 0.923253C0.0846101 1.00424 0.133859 1.07779 0.195935 1.13971L14.8604 15.8045C14.9856 15.9297 15.1553 16 15.3323 16C15.5094 16 15.6791 15.9297 15.8043 15.8045C15.9294 15.6794 15.9998 15.5096 15.9998 15.3326C15.9998 15.1556 15.9294 14.9858 15.8043 14.8606L1.13979 0.195833C1.07788 0.133757 1.00432 0.0845063 0.923337 0.0509019C0.842356 0.0172976 0.755541 0 0.667864 0C0.580188 0 0.493373 0.0172976 0.412391 0.0509019C0.33141 0.0845063 0.257853 0.133757 0.195935 0.195833V0.195833Z" fill="white"/>
<path fill-rule="evenodd" clip-rule="evenodd" d="M15.8042 0.195833C15.8662 0.257753 15.9155 0.331311 15.9491 0.412294C15.9827 0.493278 16 0.580095 16 0.667774C16 0.755452 15.9827 0.84227 15.9491 0.923253C15.9155 1.00424 15.8662 1.07779 15.8042 1.13971L1.13969 15.8045C1.01453 15.9297 0.844767 16 0.667759 16C0.490751 16 0.320993 15.9297 0.195829 15.8045C0.0706655 15.6794 0.000349824 15.5096 0.000349824 15.3326C0.000349824 15.1556 0.0706655 14.9858 0.195829 14.8606L14.8603 0.195833C14.9222 0.133757 14.9958 0.0845063 15.0768 0.0509019C15.1577 0.0172976 15.2446 0 15.3322 0C15.4199 0 15.5067 0.0172976 15.5877 0.0509019C15.6687 0.0845063 15.7423 0.133757 15.8042 0.195833V0.195833Z" fill="white"/>
</svg>
