<svg width="30" height="30" viewBox="0 0 30 30" fill="none" xmlns="http://www.w3.org/2000/svg">
<path fill-rule="evenodd" clip-rule="evenodd" d="M0.367089 0.367188C0.250698 0.483287 0.158354 0.621209 0.0953472 0.773052C0.0323401 0.924896 -9.24408e-05 1.08768 -9.24408e-05 1.25208C-9.24408e-05 1.41647 0.0323401 1.57926 0.0953472 1.7311C0.158354 1.88294 0.250698 2.02086 0.367089 2.13696L27.8632 29.6335C28.0979 29.8682 28.4162 30 28.748 30C29.0799 30 29.3982 29.8682 29.6329 29.6335C29.8676 29.3988 29.9995 29.0805 29.9995 28.7486C29.9995 28.4167 29.8676 28.0984 29.6329 27.8637L2.13684 0.367188C2.02074 0.250794 1.88282 0.158449 1.73098 0.0954411C1.57914 0.032433 1.41636 0 1.25196 0C1.08757 0 0.92479 0.032433 0.772948 0.0954411C0.621107 0.158449 0.483187 0.250794 0.367089 0.367188V0.367188Z" fill="#4F5458"/>
<path fill-rule="evenodd" clip-rule="evenodd" d="M29.6328 0.367188C29.7492 0.483287 29.8416 0.621209 29.9046 0.773052C29.9676 0.924896 30 1.08768 30 1.25208C30 1.41647 29.9676 1.57926 29.9046 1.7311C29.8416 1.88294 29.7492 2.02086 29.6328 2.13696L2.13673 29.6335C1.90205 29.8682 1.58375 30 1.25186 30C0.919965 30 0.601666 29.8682 0.366983 29.6335C0.1323 29.3988 0.000456876 29.0805 0.000456876 28.7486C0.000456876 28.4167 0.1323 28.0984 0.366983 27.8637L27.8631 0.367188C27.9792 0.250794 28.1171 0.158449 28.2689 0.0954411C28.4208 0.032433 28.5835 0 28.7479 0C28.9123 0 29.0751 0.032433 29.227 0.0954411C29.3788 0.158449 29.5167 0.250794 29.6328 0.367188V0.367188Z" fill="#4F5458"/>
</svg>
