<svg width="20" height="20" viewBox="0 0 20 20" fill="none" xmlns="http://www.w3.org/2000/svg">
<path fill-rule="evenodd" clip-rule="evenodd" d="M0.244755 0.244792C0.16716 0.322191 0.105598 0.414139 0.0635928 0.515368C0.0215878 0.616597 -3.39826e-05 0.725119 -3.39826e-05 0.834717C-3.39826e-05 0.944315 0.0215878 1.05284 0.0635928 1.15407C0.105598 1.25529 0.16716 1.34724 0.244755 1.42464L18.5756 19.7556C18.732 19.9121 18.9442 20 19.1655 20C19.3867 20 19.5989 19.9121 19.7554 19.7556C19.9119 19.5992 19.9998 19.387 19.9998 19.1657C19.9998 18.9445 19.9119 18.7323 19.7554 18.5758L1.42459 0.244792C1.34719 0.167196 1.25525 0.105633 1.15402 0.0636274C1.05279 0.021622 0.944271 0 0.834674 0C0.725077 0 0.616557 0.021622 0.515329 0.0636274C0.414101 0.105633 0.322154 0.167196 0.244755 0.244792V0.244792Z" fill="#4F5458"/>
<path fill-rule="evenodd" clip-rule="evenodd" d="M19.7552 0.244792C19.8328 0.322191 19.8944 0.414139 19.9364 0.515368C19.9784 0.616597 20 0.725119 20 0.834717C20 0.944315 19.9784 1.05284 19.9364 1.15407C19.8944 1.25529 19.8328 1.34724 19.7552 1.42464L1.4244 19.7556C1.26794 19.9121 1.05574 20 0.834481 20C0.613218 20 0.401018 19.9121 0.244562 19.7556C0.0881057 19.5992 0.000210158 19.387 0.000210158 19.1657C0.000210158 18.9445 0.0881057 18.7323 0.244562 18.5758L18.5754 0.244792C18.6528 0.167196 18.7447 0.105633 18.8459 0.0636274C18.9472 0.021622 19.0557 0 19.1653 0C19.2749 0 19.3834 0.021622 19.4846 0.0636274C19.5859 0.105633 19.6778 0.167196 19.7552 0.244792V0.244792Z" fill="#4F5458"/>
</svg>
