<svg width="47" height="46" viewBox="0 0 47 46" fill="none" xmlns="http://www.w3.org/2000/svg">
<path d="M0 5.41667C0 3.98008 0.614582 2.60233 1.70854 1.5865C2.80251 0.570683 4.28624 0 5.83333 0H32.6667C34.2138 0 35.6975 0.570683 36.7915 1.5865C37.8854 2.60233 38.5 3.98008 38.5 5.41667V20.1782C37.3645 19.8383 36.1897 19.6244 35 19.5412V5.41667C35 4.84203 34.7542 4.29093 34.3166 3.8846C33.879 3.47827 33.2855 3.25 32.6667 3.25H5.83333C5.21449 3.25 4.621 3.47827 4.18342 3.8846C3.74583 4.29093 3.5 4.84203 3.5 5.41667V34.6667H18.711C18.8043 35.7933 19.0377 36.881 19.397 37.9167H3.5C3.5 38.4913 3.74583 39.0424 4.18342 39.4487C4.621 39.8551 5.21449 40.0833 5.83333 40.0833H20.3747C21.0427 41.2721 21.8897 42.3664 22.89 43.3333H5.83333C4.28624 43.3333 2.80251 42.7627 1.70854 41.7468C0.614582 40.731 0 39.3533 0 37.9167V5.41667ZM33.8333 21.6667C37.2369 21.6667 40.5012 22.9222 42.9079 25.157C45.3146 27.3918 46.6667 30.4228 46.6667 33.5833C46.6667 36.7438 45.3146 39.7749 42.9079 42.0097C40.5012 44.2445 37.2369 45.5 33.8333 45.5C30.4297 45.5 27.1655 44.2445 24.7588 42.0097C22.3521 39.7749 21 36.7438 21 33.5833C21 30.4228 22.3521 27.3918 24.7588 25.157C27.1655 22.9222 30.4297 21.6667 33.8333 21.6667ZM35.0023 40.0898V34.6667H40.8403C41.1497 34.6667 41.4465 34.5525 41.6653 34.3494C41.8841 34.1462 42.007 33.8707 42.007 33.5833C42.007 33.296 41.8841 33.0205 41.6653 32.8173C41.4465 32.6141 41.1497 32.5 40.8403 32.5H35V27.0833C35 26.796 34.8771 26.5205 34.6583 26.3173C34.4395 26.1141 34.1427 26 33.8333 26C33.5239 26 33.2272 26.1141 33.0084 26.3173C32.7896 26.5205 32.6667 26.796 32.6667 27.0833V32.5H26.824C26.5146 32.5 26.2178 32.6141 25.999 32.8173C25.7802 33.0205 25.6573 33.296 25.6573 33.5833C25.6573 33.8707 25.7802 34.1462 25.999 34.3494C26.2178 34.5525 26.5146 34.6667 26.824 34.6667H32.669V40.0898C32.669 40.3772 32.7919 40.6527 33.0107 40.8559C33.2295 41.059 33.5262 41.1732 33.8357 41.1732C34.1451 41.1732 34.4418 41.059 34.6606 40.8559C34.8794 40.6527 35.0023 40.3772 35.0023 40.0898ZM7 8.66667C7 8.09203 7.24583 7.54093 7.68342 7.1346C8.121 6.72827 8.71449 6.5 9.33333 6.5H28C28.6188 6.5 29.2123 6.72827 29.6499 7.1346C30.0875 7.54093 30.3333 8.09203 30.3333 8.66667V13C30.3333 13.5746 30.0875 14.1257 29.6499 14.5321C29.2123 14.9384 28.6188 15.1667 28 15.1667H9.33333C8.71449 15.1667 8.121 14.9384 7.68342 14.5321C7.24583 14.1257 7 13.5746 7 13V8.66667ZM10.5 11.9167H26.8333V9.75H10.5V11.9167Z" fill="black"/>
</svg>
