<svg width="30" height="26" viewBox="0 0 30 26" fill="none" xmlns="http://www.w3.org/2000/svg">
<path d="M26.7788 1.87532C23.4022 -0.944453 18.1855 -0.520908 14.955 2.74561C11.7245 -0.520908 6.50776 -0.950255 3.13121 1.87532C-1.26182 5.54798 -0.619223 11.5356 2.51198 14.7093L12.7585 25.0775C13.3427 25.6693 14.1255 26 14.955 26C15.7904 26 16.5673 25.6751 17.1515 25.0833L27.398 14.7151C30.5234 11.5414 31.1777 5.55378 26.7788 1.87532V1.87532ZM25.4001 12.7541L15.1536 23.1222C15.0134 23.2615 14.8966 23.2615 14.7564 23.1222L4.50987 12.7541C2.37762 10.5957 1.94532 6.51111 4.93632 4.01045C7.20878 2.1132 10.7139 2.39749 12.9104 4.61966L14.955 6.69097L16.9996 4.61966C19.2078 2.38589 22.7129 2.1132 24.9737 4.00465C27.9588 6.5053 27.5149 10.6131 25.4001 12.7541V12.7541Z" fill="#EF5DA8"/>
</svg>
