<svg width="36" height="36" viewBox="0 0 36 36" fill="none" xmlns="http://www.w3.org/2000/svg">
<path d="M24.243 16.1318C24.3449 16.2334 24.4257 16.3541 24.4809 16.4869C24.536 16.6198 24.5644 16.7623 24.5644 16.9061C24.5644 17.05 24.536 17.1924 24.4809 17.3253C24.4257 17.4582 24.3449 17.5789 24.243 17.6805L17.6805 24.243C17.5789 24.3449 17.4582 24.4257 17.3254 24.4808C17.1925 24.536 17.05 24.5643 16.9062 24.5643C16.7623 24.5643 16.6198 24.536 16.487 24.4808C16.3541 24.4257 16.2334 24.3449 16.1318 24.243L12.8505 20.9618C12.7488 20.8601 12.6682 20.7393 12.6131 20.6065C12.5581 20.4736 12.5298 20.3312 12.5298 20.1874C12.5298 20.0436 12.5581 19.9012 12.6131 19.7683C12.6682 19.6354 12.7488 19.5147 12.8505 19.413C13.0559 19.2076 13.3345 19.0922 13.6249 19.0922C13.7687 19.0922 13.9111 19.1206 14.044 19.1756C14.1769 19.2306 14.2976 19.3113 14.3993 19.413L16.9062 21.9221L22.6943 16.1318C22.7959 16.0299 22.9166 15.9491 23.0495 15.8939C23.1823 15.8388 23.3248 15.8104 23.4687 15.8104C23.6125 15.8104 23.755 15.8388 23.8879 15.8939C24.0207 15.9491 24.1414 16.0299 24.243 16.1318Z" fill="black"/>
<path d="M8.15625 0.5C8.44633 0.5 8.72453 0.615234 8.92965 0.820352C9.13477 1.02547 9.25 1.30367 9.25 1.59375V2.6875H26.75V1.59375C26.75 1.30367 26.8652 1.02547 27.0704 0.820352C27.2755 0.615234 27.5537 0.5 27.8438 0.5C28.1338 0.5 28.412 0.615234 28.6171 0.820352C28.8223 1.02547 28.9375 1.30367 28.9375 1.59375V2.6875H31.125C32.2853 2.6875 33.3981 3.14844 34.2186 3.96891C35.0391 4.78938 35.5 5.90218 35.5 7.0625V31.125C35.5 32.2853 35.0391 33.3981 34.2186 34.2186C33.3981 35.0391 32.2853 35.5 31.125 35.5H4.875C3.71468 35.5 2.60188 35.0391 1.78141 34.2186C0.960936 33.3981 0.5 32.2853 0.5 31.125V7.0625C0.5 5.90218 0.960936 4.78938 1.78141 3.96891C2.60188 3.14844 3.71468 2.6875 4.875 2.6875H7.0625V1.59375C7.0625 1.30367 7.17773 1.02547 7.38285 0.820352C7.58797 0.615234 7.86617 0.5 8.15625 0.5V0.5ZM2.6875 9.25V31.125C2.6875 31.7052 2.91797 32.2616 3.3282 32.6718C3.73844 33.082 4.29484 33.3125 4.875 33.3125H31.125C31.7052 33.3125 32.2616 33.082 32.6718 32.6718C33.082 32.2616 33.3125 31.7052 33.3125 31.125V9.25H2.6875Z" fill="black"/>
</svg>
