<svg width="25" height="25" viewBox="0 0 25 25" fill="none" xmlns="http://www.w3.org/2000/svg">
<path d="M24.192 8.80321L16.6975 7.66263L13.3472 0.550211C13.2557 0.355478 13.1052 0.197836 12.9192 0.102015C12.4528 -0.139084 11.8861 0.0618317 11.6529 0.550211L8.30266 7.66263L0.808145 8.80321C0.601522 8.83412 0.41261 8.93612 0.267974 9.09068C0.0931164 9.27888 -0.00323781 9.53207 8.308e-05 9.79463C0.00340397 10.0572 0.106128 10.3076 0.285684 10.4909L5.70806 16.0269L4.427 23.8441C4.39696 24.0259 4.41618 24.2129 4.48247 24.3839C4.54877 24.5549 4.65949 24.703 4.80208 24.8115C4.94467 24.9199 5.11342 24.9844 5.28921 24.9975C5.46499 25.0106 5.64077 24.9719 5.79662 24.8857L12.5001 21.1951L19.2035 24.8857C19.3865 24.9877 19.599 25.0217 19.8027 24.9847C20.3163 24.8919 20.6617 24.3819 20.5731 23.8441L19.2921 16.0269L24.7144 10.4909C24.862 10.3394 24.9594 10.1416 24.9889 9.92525C25.0686 9.38432 24.7085 8.88358 24.192 8.80321Z" fill="#F4F2BF"/>
</svg>
