<svg width="36" height="36" viewBox="0 0 36 36" fill="none" xmlns="http://www.w3.org/2000/svg">
<path fill-rule="evenodd" clip-rule="evenodd" d="M10.5011 32.1643C10.5011 31.7223 10.6328 31.2985 10.8672 30.9859C11.1016 30.6734 11.4196 30.4979 11.7511 30.4979H34.2501C34.5816 30.4979 34.8995 30.6734 35.1339 30.9859C35.3683 31.2985 35.5 31.7223 35.5 32.1643C35.5 32.6062 35.3683 33.0301 35.1339 33.3426C34.8995 33.6551 34.5816 33.8306 34.2501 33.8306H11.7511C11.4196 33.8306 11.1016 33.6551 10.8672 33.3426C10.6328 33.0301 10.5011 32.6062 10.5011 32.1643ZM10.5011 18.8332C10.5011 18.3912 10.6328 17.9674 10.8672 17.6549C11.1016 17.3424 11.4196 17.1668 11.7511 17.1668H34.2501C34.5816 17.1668 34.8995 17.3424 35.1339 17.6549C35.3683 17.9674 35.5 18.3912 35.5 18.8332C35.5 19.2751 35.3683 19.699 35.1339 20.0115C34.8995 20.324 34.5816 20.4996 34.2501 20.4996H11.7511C11.4196 20.4996 11.1016 20.324 10.8672 20.0115C10.6328 19.699 10.5011 19.2751 10.5011 18.8332ZM10.5011 5.50213C10.5011 5.06018 10.6328 4.63632 10.8672 4.32382C11.1016 4.01131 11.4196 3.83575 11.7511 3.83575H34.2501C34.5816 3.83575 34.8995 4.01131 35.1339 4.32382C35.3683 4.63632 35.5 5.06018 35.5 5.50213C35.5 5.94408 35.3683 6.36793 35.1339 6.68044C34.8995 6.99295 34.5816 7.16851 34.2501 7.16851H11.7511C11.4196 7.16851 11.1016 6.99295 10.8672 6.68044C10.6328 6.36793 10.5011 5.94408 10.5011 5.50213ZM7.63626 0.989562C7.75266 1.14436 7.84501 1.32824 7.90803 1.53069C7.97104 1.73314 8.00347 1.95017 8.00347 2.16936C8.00347 2.38855 7.97104 2.60558 7.90803 2.80803C7.84501 3.01048 7.75266 3.19437 7.63626 3.34916L3.88643 8.34831C3.77032 8.5035 3.63238 8.62662 3.48053 8.71062C3.32867 8.79463 3.16588 8.83787 3.00147 8.83787C2.83706 8.83787 2.67426 8.79463 2.5224 8.71062C2.37055 8.62662 2.23262 8.5035 2.11651 8.34831L0.866563 6.68193C0.750348 6.52699 0.658161 6.34306 0.595266 6.14063C0.532372 5.9382 0.5 5.72124 0.5 5.50213C0.5 5.28302 0.532372 5.06606 0.595266 4.86363C0.658161 4.6612 0.750348 4.47726 0.866563 4.32233C0.982777 4.1674 1.12074 4.0445 1.27259 3.96065C1.42443 3.8768 1.58717 3.83364 1.75152 3.83364C1.91587 3.83364 2.07862 3.8768 2.23046 3.96065C2.3823 4.0445 2.52027 4.1674 2.63648 4.32233L3.00147 4.81225L5.86634 0.989562C5.98245 0.834378 6.12038 0.711257 6.27223 0.627249C6.42409 0.543242 6.58689 0.5 6.7513 0.5C6.91571 0.5 7.0785 0.543242 7.23036 0.627249C7.38222 0.711257 7.52015 0.834378 7.63626 0.989562ZM7.63626 14.3206C7.75266 14.4754 7.84501 14.6593 7.90803 14.8618C7.97104 15.0642 8.00347 15.2812 8.00347 15.5004C8.00347 15.7196 7.97104 15.9366 7.90803 16.1391C7.84501 16.3415 7.75266 16.5254 7.63626 16.6802L3.88643 21.6794C3.77032 21.8346 3.63238 21.9577 3.48053 22.0417C3.32867 22.1257 3.16588 22.1689 3.00147 22.1689C2.83706 22.1689 2.67426 22.1257 2.5224 22.0417C2.37055 21.9577 2.23262 21.8346 2.11651 21.6794L0.866563 20.013C0.631857 19.7001 0.5 19.2757 0.5 18.8332C0.5 18.3907 0.631857 17.9663 0.866563 17.6534C1.10127 17.3405 1.4196 17.1647 1.75152 17.1647C2.08345 17.1647 2.40178 17.3405 2.63648 17.6534L3.00147 18.1433L5.86634 14.3206C5.98245 14.1654 6.12038 14.0423 6.27223 13.9583C6.42409 13.8743 6.58689 13.8311 6.7513 13.8311C6.91571 13.8311 7.0785 13.8743 7.23036 13.9583C7.38222 14.0423 7.52015 14.1654 7.63626 14.3206ZM7.63626 27.6517C7.75266 27.8065 7.84501 27.9904 7.90803 28.1928C7.97104 28.3953 8.00347 28.6123 8.00347 28.8315C8.00347 29.0507 7.97104 29.2677 7.90803 29.4702C7.84501 29.6726 7.75266 29.8565 7.63626 30.0113L3.88643 35.0104C3.77032 35.1656 3.63238 35.2887 3.48053 35.3727C3.32867 35.4568 3.16588 35.5 3.00147 35.5C2.83706 35.5 2.67426 35.4568 2.5224 35.3727C2.37055 35.2887 2.23262 35.1656 2.11651 35.0104L0.866563 33.3441C0.631857 33.0312 0.5 32.6068 0.5 32.1643C0.5 31.7217 0.631857 31.2974 0.866563 30.9845C1.10127 30.6716 1.4196 30.4958 1.75152 30.4958C2.08345 30.4958 2.40178 30.6716 2.63648 30.9845L3.00147 31.4744L5.86634 27.6517C5.98245 27.4965 6.12038 27.3734 6.27223 27.2894C6.42409 27.2054 6.58689 27.1621 6.7513 27.1621C6.91571 27.1621 7.0785 27.2054 7.23036 27.2894C7.38222 27.3734 7.52015 27.4965 7.63626 27.6517Z" fill="black"/>
</svg>
