<svg width="20" height="26" viewBox="0 0 20 26" fill="none" xmlns="http://www.w3.org/2000/svg">
<path d="M9.35636 0.238689C9.44081 0.163028 9.54113 0.102999 9.65158 0.0620412C9.76202 0.021083 9.88042 0 10 0C10.1196 0 10.238 0.021083 10.3484 0.0620412C10.4589 0.102999 10.5592 0.163028 10.6436 0.238689C11.6091 1.10314 13.9236 3.5925 16 6.58071C18.0545 9.53804 20 13.1616 20 16.2505C20 19.2469 19.04 21.6972 17.2545 23.4066C15.4673 25.1209 12.9382 26 10 26C7.06364 26 4.53455 25.1209 2.74546 23.4066C0.958182 21.6972 0 19.2469 0 16.2505C0 13.16 1.94545 9.53967 4 6.58071C6.07636 3.59088 8.39091 1.10477 9.35636 0.238689ZM5.54545 7.43704C3.50909 10.37 1.81818 13.6539 1.81818 16.2505C1.81818 18.9414 2.67636 20.9595 4.07273 22.2968C5.46727 23.6293 7.48364 24.3751 10 24.3751C12.5182 24.3751 14.5345 23.6293 15.9273 22.2968C17.3236 20.9595 18.1818 18.9414 18.1818 16.2505C18.1818 13.6539 16.4909 10.3684 14.4545 7.43704C13.1283 5.52816 11.639 3.71369 10 2.00984C8.36096 3.71367 6.87168 5.52814 5.54545 7.43704Z" fill="#A3CEE9"/>
</svg>
