<svg width="40" height="40" viewBox="0 0 40 40" fill="none" xmlns="http://www.w3.org/2000/svg">
<path d="M30.8308 17.2392L21.0528 1.96664C20.9397 1.79003 20.784 1.64471 20.6001 1.54404C20.4161 1.44338 20.2098 1.39063 20 1.39062C19.7903 1.39062 19.584 1.44338 19.4 1.54404C19.2161 1.64471 19.0604 1.79003 18.9473 1.96664L9.16911 17.2394C7.47391 19.539 6.56285 22.3227 6.57036 25.1796C6.57036 32.5847 12.5948 38.6093 20 38.6093C27.4053 38.6093 33.4297 32.5848 33.4297 25.1796C33.4373 22.3226 32.5261 19.5388 30.8308 17.2392ZM20 36.1093C13.9735 36.1093 9.07036 31.2063 9.07036 25.1796C9.06396 22.8431 9.81263 20.5671 11.2048 18.6907C11.2214 18.6682 11.2373 18.6452 11.2523 18.6216L20 4.95891L28.7475 18.6217C28.7625 18.6453 28.7783 18.6683 28.795 18.6908C30.1873 20.5671 30.936 22.8431 30.9297 25.1796C30.9297 31.2062 26.0266 36.1093 20 36.1093Z" fill="black"/>
</svg>
